<?xml version="1.0" encoding="UTF-8" standalone="no"?>
<!DOCTYPE svg PUBLIC "-//W3C//DTD SVG 1.1//EN"
 "http://www.w3.org/Graphics/SVG/1.1/DTD/svg11.dtd">
<!-- Generated by graphviz version 2.40.1 (20161225.0304)
 -->
<!-- Title: G Pages: 1 -->
<svg width="432pt" height="86pt"
 viewBox="0.00 0.00 432.00 85.62" xmlns="http://www.w3.org/2000/svg" xmlns:xlink="http://www.w3.org/1999/xlink">
<g id="graph0" class="graph" transform="scale(.4765 .4765) rotate(0) translate(4 175.6932)">
<title>G</title>
<polygon fill="#ffffff" stroke="transparent" points="-4,4 -4,-175.6932 902.6932,-175.6932 902.6932,4 -4,4"/>
<!-- render2 -->
<g id="node1" class="node">
<title>render2</title>
<ellipse fill="#ff0000" stroke="#c1b2ff" cx="38.3466" cy="-133.3466" rx="38.1938" ry="38.1938"/>
<text text-anchor="middle" x="38.3466" y="-129.6466" font-family="Times,serif" font-size="14.00" fill="#000000">render2</text>
</g>
<!-- patch -->
<g id="node3" class="node">
<title>patch</title>
<polygon fill="#c1b2ff" stroke="#c1b2ff" points="217.6932,-103.3466 163.6932,-103.3466 163.6932,-67.3466 217.6932,-67.3466 217.6932,-103.3466"/>
<text text-anchor="middle" x="190.6932" y="-81.6466" font-family="Times,serif" font-size="14.00" fill="#000000">patch</text>
</g>
<!-- render2&#45;&gt;patch -->
<g id="edge6" class="edge">
<title>render2&#45;&gt;patch</title>
<path fill="none" stroke="#0000ff" d="M75.2255,-121.7271C98.958,-114.2497 129.6982,-104.5643 153.4935,-97.0671"/>
<polygon fill="#0000ff" stroke="#0000ff" points="154.7397,-100.3442 163.2257,-94.0008 152.6361,-93.6677 154.7397,-100.3442"/>
<text text-anchor="middle" x="120.1932" y="-118.1466" font-family="Times,serif" font-size="14.00" fill="#000000">null</text>
</g>
<!-- render1 -->
<g id="node2" class="node">
<title>render1</title>
<ellipse fill="#ff0000" stroke="#c1b2ff" cx="38.3466" cy="-38.3466" rx="38.1938" ry="38.1938"/>
<text text-anchor="middle" x="38.3466" y="-34.6466" font-family="Times,serif" font-size="14.00" fill="#000000">render1</text>
</g>
<!-- render1&#45;&gt;patch -->
<g id="edge1" class="edge">
<title>render1&#45;&gt;patch</title>
<path fill="none" stroke="#000000" d="M75.2255,-49.724C98.958,-57.0456 129.6982,-66.5292 153.4935,-73.8702"/>
<polygon fill="#000000" stroke="#000000" points="152.6382,-77.2691 163.2257,-76.8727 154.7019,-70.5802 152.6382,-77.2691"/>
<text text-anchor="middle" x="120.1932" y="-76.1466" font-family="Times,serif" font-size="14.00" fill="#000000">two span</text>
</g>
<!-- processElement -->
<g id="node4" class="node">
<title>processElement</title>
<polygon fill="#c1b2ff" stroke="#c1b2ff" points="359.6932,-137.3466 254.6932,-137.3466 254.6932,-101.3466 359.6932,-101.3466 359.6932,-137.3466"/>
<text text-anchor="middle" x="307.1932" y="-115.6466" font-family="Times,serif" font-size="14.00" fill="#000000">processElement</text>
</g>
<!-- patch&#45;&gt;processElement -->
<g id="edge2" class="edge">
<title>patch&#45;&gt;processElement</title>
<path fill="none" stroke="#000000" d="M217.7135,-93.2323C225.9812,-95.6452 235.4406,-98.4059 245.0421,-101.2081"/>
<polygon fill="#000000" stroke="#000000" points="244.0718,-104.5709 254.652,-104.0127 246.033,-97.8512 244.0718,-104.5709"/>
</g>
<!-- mountElement -->
<g id="node5" class="node">
<title>mountElement</title>
<polygon fill="#c1b2ff" stroke="#c1b2ff" points="565.6932,-100.3466 466.6932,-100.3466 466.6932,-64.3466 565.6932,-64.3466 565.6932,-100.3466"/>
<text text-anchor="middle" x="516.1932" y="-78.6466" font-family="Times,serif" font-size="14.00" fill="#000000">mountElement</text>
</g>
<!-- processElement&#45;&gt;mountElement -->
<g id="edge3" class="edge">
<title>processElement&#45;&gt;mountElement</title>
<path fill="none" stroke="#000000" d="M359.9327,-110.0099C389.2669,-104.8168 425.8811,-98.3349 456.2922,-92.9511"/>
<polygon fill="#000000" stroke="#000000" points="457.1115,-96.3605 466.3483,-91.1708 455.8912,-89.4677 457.1115,-96.3605"/>
<text text-anchor="middle" x="413.1932" y="-109.1466" font-family="Times,serif" font-size="14.00" fill="#000000">节点不存在</text>
</g>
<!-- patchElement -->
<g id="node6" class="node">
<title>patchElement</title>
<polygon fill="#c1b2ff" stroke="#c1b2ff" points="562.6932,-162.3466 469.6932,-162.3466 469.6932,-126.3466 562.6932,-126.3466 562.6932,-162.3466"/>
<text text-anchor="middle" x="516.1932" y="-140.6466" font-family="Times,serif" font-size="14.00" fill="#000000">patchElement</text>
</g>
<!-- processElement&#45;&gt;patchElement -->
<g id="edge4" class="edge">
<title>processElement&#45;&gt;patchElement</title>
<path fill="none" stroke="#0000ff" d="M359.9327,-125.6552C390.2447,-129.281 428.3301,-133.8367 459.3121,-137.5426"/>
<polygon fill="#0000ff" stroke="#0000ff" points="459.1803,-141.0517 469.5253,-138.7643 460.0118,-134.1013 459.1803,-141.0517"/>
<text text-anchor="middle" x="413.1932" y="-139.1466" font-family="Times,serif" font-size="14.00" fill="#000000">节点存在</text>
</g>
<!-- mountElement&#45;&gt;patch -->
<g id="edge5" class="edge">
<title>mountElement&#45;&gt;patch</title>
<path fill="none" stroke="#ff0000" stroke-dasharray="1,5" d="M466.6025,-82.8037C401.0617,-83.4077 287.043,-84.4586 228.2053,-85.0009"/>
<polygon fill="#ff0000" stroke="#ff0000" points="227.8526,-81.5039 217.8853,-85.096 227.9171,-88.5036 227.8526,-81.5039"/>
</g>
<!-- patchChildren -->
<g id="node7" class="node">
<title>patchChildren</title>
<polygon fill="#c1b2ff" stroke="#c1b2ff" points="698.6932,-162.3466 602.6932,-162.3466 602.6932,-126.3466 698.6932,-126.3466 698.6932,-162.3466"/>
<text text-anchor="middle" x="650.6932" y="-140.6466" font-family="Times,serif" font-size="14.00" fill="#000000">patchChildren</text>
</g>
<!-- patchElement&#45;&gt;patchChildren -->
<g id="edge7" class="edge">
<title>patchElement&#45;&gt;patchChildren</title>
<path fill="none" stroke="#0000ff" d="M562.8573,-144.3466C572.3177,-144.3466 582.3796,-144.3466 592.1889,-144.3466"/>
<polygon fill="#0000ff" stroke="#0000ff" points="592.2841,-147.8467 602.2841,-144.3466 592.284,-140.8467 592.2841,-147.8467"/>
</g>
<!-- unmountChildren -->
<g id="node8" class="node">
<title>unmountChildren</title>
<polygon fill="#c1b2ff" stroke="#c1b2ff" points="898.6932,-162.3466 783.6932,-162.3466 783.6932,-126.3466 898.6932,-126.3466 898.6932,-162.3466"/>
<text text-anchor="middle" x="841.1932" y="-140.6466" font-family="Times,serif" font-size="14.00" fill="#000000">unmountChildren</text>
</g>
<!-- patchChildren&#45;&gt;unmountChildren -->
<g id="edge8" class="edge">
<title>patchChildren&#45;&gt;unmountChildren</title>
<path fill="none" stroke="#0000ff" d="M698.7644,-144.3466C721.4333,-144.3466 748.8718,-144.3466 773.5905,-144.3466"/>
<polygon fill="#0000ff" stroke="#0000ff" points="773.6332,-147.8467 783.6331,-144.3466 773.6331,-140.8467 773.6332,-147.8467"/>
<text text-anchor="middle" x="741.1932" y="-148.1466" font-family="Times,serif" font-size="14.00" fill="#000000">new null</text>
</g>
</g>
</svg>
