<?xml version="1.0" standalone="no"?><!DOCTYPE svg PUBLIC "-//W3C//DTD SVG 1.1//EN" "http://www.w3.org/Graphics/SVG/1.1/DTD/svg11.dtd"><svg t="1603250177043" class="icon" viewBox="0 0 1024 1024" version="1.1" xmlns="http://www.w3.org/2000/svg" p-id="9818" xmlns:xlink="http://www.w3.org/1999/xlink" width="200" height="200"><defs><style type="text/css"></style></defs><path d="M113.575 400.447c61.606 0 111.559 49.951 111.559 111.554s-49.952 111.554-111.559 111.554c-61.606 0-111.559-49.951-111.559-111.554s49.954-111.554 111.559-111.554z" p-id="9819"></path><path d="M511.999 400.447c61.606 0 111.559 49.951 111.559 111.554s-49.952 111.554-111.559 111.554c-61.606 0-111.559-49.951-111.559-111.554s49.953-111.554 111.559-111.554z" p-id="9820"></path><path d="M910.422 400.447c61.606 0 111.559 49.951 111.559 111.554s-49.952 111.554-111.559 111.554c-61.605 0-111.559-49.951-111.559-111.554s49.954-111.554 111.559-111.554z" p-id="9821"></path></svg>